<mxfile host="app.diagrams.net" modified="2023-03-31T07:54:06.172Z" agent="Mozilla/5.0 (Windows NT 10.0; Win64; x64) AppleWebKit/537.36 (KHTML, like Gecko) Chrome/111.0.0.0 Safari/537.36 Edg/111.0.1661.54" version="21.1.2" etag="GR-xTJDb6e7V4EdYeSAD" type="github">
  <diagram name="第 1 页" id="DZ3pw3Yq67s37pNqMv8C">
    <mxGraphModel>
      <root>
        <mxCell id="0" />
        <mxCell id="1" parent="0" />
      </root>
    </mxGraphModel>
  </diagram>
</mxfile>
